<?xml version="1.0" standalone="no"?><!DOCTYPE svg PUBLIC "-//W3C//DTD SVG 1.1//EN" "http://www.w3.org/Graphics/SVG/1.1/DTD/svg11.dtd"><svg t="1597571235004" class="icon" viewBox="0 0 1024 1024" version="1.1" xmlns="http://www.w3.org/2000/svg" p-id="9528" xmlns:xlink="http://www.w3.org/1999/xlink" width="128" height="128"><defs><style type="text/css"></style></defs><path d="M746.61888 146.47296c41.6768 25.51808 75.22304 193.26976-28.16 199.61856a185.5488 185.5488 0 0 1-13.29152 0.45056c-212.25472 0-124.17024-331.71456-124.17024-331.71456-300.76928 90.4192-220.52864 394.09664-220.52864 394.09664s-87.61344-91.4432-65.69984-219.9552C167.3216 271.33952 197.40672 485.00736 197.40672 485.00736s-78.56128-34.42688-60.47744-142.72512c-35.40992 65.16736-51.07712 130.56-51.07712 210.1248 0 252.23168 202.87488 456.76544 453.12 456.76544 250.22464 0 453.07904-204.3904 453.07904-456.76544A457.29792 457.29792 0 0 0 746.61888 146.47296" fill="#E94335" p-id="9529"></path><path d="M254.32064 516.01408h47.3088v83.82464h89.4976v-83.82464h46.98112v213.13536h-46.98112v-92.16h-89.4976v92.16h-47.3088zM465.3056 621.71136c0-69.40672 43.13088-109.71136 105.7792-109.71136 62.6688 0 105.82016 40.59136 105.82016 109.71136S633.73312 733.184 571.0848 733.184c-62.64832 0-105.7792-42.35264-105.7792-111.47264m163.30752 0c0-45.79328-22.36416-73.15456-57.5488-73.15456-35.14368 0-57.52832 27.36128-57.52832 73.15456 0 45.50656 22.38464 74.60864 57.52832 74.60864 35.20512 0 57.5488-29.10208 57.5488-74.60864M741.15072 551.44448h-66.47808v-35.4304h180.87936v35.4304h-67.09248v177.70496h-47.3088z" fill="#FFFFFF" p-id="9530"></path></svg>