<?xml version="1.0" standalone="no"?><!DOCTYPE svg PUBLIC "-//W3C//DTD SVG 1.1//EN" "http://www.w3.org/Graphics/SVG/1.1/DTD/svg11.dtd"><svg t="1597569495003" class="icon" viewBox="0 0 1024 1024" version="1.1" xmlns="http://www.w3.org/2000/svg" p-id="7450" xmlns:xlink="http://www.w3.org/1999/xlink" width="128" height="128"><defs><style type="text/css"></style></defs><path d="M503.04 207.36A1228.8 1228.8 0 0 1 96 503.68V350.72a947.776 947.776 0 0 0 309.12-229.76h10.88l3.84-16 1.92-1.92c-0.64 0-0.64-0.64-1.28-0.64l7.68-30.08h131.2a1071.488 1071.488 0 0 0 368.64 283.52v145.92a1333.76 1333.76 0 0 1-424.96-294.4z m152.96 222.72V544L416 487.04V375.68z m208 264.96l-230.4 256H416l256-256h-512v-128h704v128z" p-id="7451" fill="#2c2c2c"></path></svg>