<?xml version="1.0" standalone="no"?><!DOCTYPE svg PUBLIC "-//W3C//DTD SVG 1.1//EN" "http://www.w3.org/Graphics/SVG/1.1/DTD/svg11.dtd"><svg t="1597569416682" class="icon" viewBox="0 0 1024 1024" version="1.1" xmlns="http://www.w3.org/2000/svg" p-id="3644" xmlns:xlink="http://www.w3.org/1999/xlink" width="128" height="128"><defs><style type="text/css"></style></defs><path d="M742.17667074 502.0476915c-37.1746286-7.18606989-19.07253485-26.81588825-19.07253482-26.81588825s36.36945017-59.22382348-7.27542786-102.32967399c-53.97767614-53.3147007-185.37831281 6.71141865-185.37831281 6.71141864-50.11224487 15.31856064-36.85371065-7.02561092-29.74642895-45.02079041 0-44.85552778-15.51553069-120.67581955-149.17796934-75.9826728C218.02882283 303.78749097 103.43315387 461.6609988 103.43315387 461.6609988 23.75511799 566.53688076 34.26278703 647.62926304 34.26278703 647.62926304c19.87579124 179.11079952 212.69671657 228.27662352 362.68370746 239.93056699 157.74859934 12.13628189 370.76815592-53.63850218 435.25254055-189.00545745C896.8506053 563.02407483 779.51079779 509.39133873 742.17667074 502.0476915L742.17667074 502.0476915 742.17667074 502.0476915zM408.57929938 837.11513784c-156.61577725 7.18222677-283.32466752-70.23689157-283.32466751-173.35925315 0-103.28474258 126.70889026-185.97402941 283.32466751-193.16106078 156.77911882-7.18126623 283.65519375 56.66993021 283.65519376 159.63183188C692.23353259 733.19336299 565.35841914 830.09048748 408.57929938 837.11513784L408.57929938 837.11513784 408.57929938 837.11513784zM377.38873957 538.44596744C219.80252031 556.64126134 238.06507305 702.22859804 238.06507305 702.22859804s-1.61323849 46.13343543 42.18729392 69.5998593c92.12466693 49.32724448 187.15777543 19.47320249 234.99957245-41.66556184C563.25515597 669.18459108 535.13829948 520.4024848 377.38873957 538.44596744L377.38873957 538.44596744 377.38873957 538.44596744zM337.62946993 742.93332707c-29.41686326 3.35042491-53.17441975-13.41418955-53.17441975-37.67810465 0-24.1024956 21.0066913-49.48482087 50.42355455-52.51624893 33.78384859-3.19284756 55.76194243 15.96520118 55.76194244 40.38669272C390.80388966 717.23392695 366.88299163 739.58194162 337.62946993 742.93332707L337.62946993 742.93332707 337.62946993 742.93332707zM430.5631584 664.87333336c-10.02148843 7.33884262-22.30093385 6.38473552-27.47886276-2.55101162-5.49020008-8.62731909-3.39270111-22.35666238 6.62878637-29.5360066 11.6376095-8.62347598 23.75851702-6.06477809 29.09017922 2.55197218C443.98119105 643.95888167 440.26084628 657.20588559 430.5631584 664.87333336L430.5631584 664.87333336 430.5631584 664.87333336zM818.94626597 438.99398725c12.76658753 0 23.43567704-9.26050824 25.37752068-21.39006444 0.16141954-0.9608328 0.3161143-1.75736351 0.31611429-2.71819632 19.23875897-170.64489994-141.73919994-141.27031384-141.73919993-141.27031382-14.22224961 0-25.69940011 11.33110346-25.69940012 25.69940012 0 14.05026127 11.47715051 25.38136472 25.69940012 25.38136473 115.56034489-25.22474887 90.18762789 88.91068078 90.18762788 88.91068078C792.92883046 427.65711957 804.56355738 438.99398725 818.94626597 438.99398725L818.94626597 438.99398725 818.94626597 438.99398725zM800.20041425 141.11750443c-55.59956142-12.92896855-112.97762587-1.75448094-128.97837757 1.2721425-1.2952031 0.16238101-2.42226004 1.28463334-3.55412158 1.44028866-0.48522101 0.16238101-0.97044107 0.63607171-0.97044108 0.63607172-15.8354881 4.47363873-27.31359916 18.83617024-27.31359915 35.91978063 0 20.27165428 16.64258856 37.0305036 37.49458602 37.03050358 0 0 20.20247436-2.71243116 33.94526905-7.97971802 13.56984392-5.42294123 128.96972983-3.98745717 186.18156921 90.83138586 31.20401213 69.28086243 13.74375523 115.57667886 11.48291472 123.07694101 0 0-7.43684738 18.0425221-7.43684738 35.75739961 0 20.43403529 16.64931425 33.36684696 37.49458603 33.36684696 17.29691534 0 31.84296643-2.39439577 36.04468908-31.28760495l0.16141954 0C1036.49230722 258.92715953 899.75712487 163.9459355 800.20041425 141.11750443L800.20041425 141.11750443 800.20041425 141.11750443z" p-id="3645" fill="#2c2c2c"></path></svg>